<svg xmlns="http://www.w3.org/2000/svg" width="241.803" height="29.12" viewBox="0 0 241.803 29.12">
  <g id="logo" transform="translate(-304.797 -183.44)">
    <path id="Path_1" data-name="Path 1" d="M-7189.214-5221.286h-5.391l-9.362,27h5.674Z" transform="translate(7509.467 5406.09)" fill="#cd886f" stroke="#cd886f" stroke-width="1" opacity="0.49"/>
    <path id="Path_2" data-name="Path 2" d="M-7189.214-5221.286h-5.391l-9.362,27h5.674Z" transform="translate(7518.735 5406.09)" fill="#cd886f" stroke="#cd886f" stroke-width="1" opacity="0.83"/>
    <path id="Path_3" data-name="Path 3" d="M-7189.214-5221.286h-5.391l-9.362,27h5.674Z" transform="translate(7528.002 5406.09)" fill="#cd886f" stroke="#cd886f" stroke-width="1"/>
    <path id="Path_4" data-name="Path 4" d="M33.64-28V0H30.8V-22.4L19.8-3.56H18.4L7.4-22.28V0H4.56V-28H7L19.16-7.24,31.2-28ZM52.36-9.68V0H49.44V-9.68L38.24-28H41.4L51-12.28,60.6-28h2.96ZM78.64-7.44H74.32V0H66.4V-28H79.2a15.97,15.97,0,0,1,6.6,1.26,9.788,9.788,0,0,1,4.32,3.6,9.87,9.87,0,0,1,1.52,5.5,9.752,9.752,0,0,1-1.42,5.3A9.6,9.6,0,0,1,86.16-8.8L92.2,0H83.72Zm5-10.2a3.816,3.816,0,0,0-1.24-3.04,5.462,5.462,0,0,0-3.68-1.08h-4.4v8.2h4.4a5.534,5.534,0,0,0,3.68-1.06A3.755,3.755,0,0,0,83.64-17.64ZM118.48-6.12V0H96V-28h21.96v6.12H103.84v4.72h12.44v5.92H103.84v5.12Zm23.16.68H129.8L127.6,0h-8.08l12.36-28h7.8l12.4,28h-8.24Zm-2.32-5.84-3.6-8.96-3.6,8.96Zm15-16.72h13.24a18.534,18.534,0,0,1,8.16,1.72,12.956,12.956,0,0,1,5.52,4.88A13.75,13.75,0,0,1,183.2-14a13.75,13.75,0,0,1-1.96,7.4,12.956,12.956,0,0,1-5.52,4.88A18.534,18.534,0,0,1,167.56,0H154.32ZM167.24-6.32a8.118,8.118,0,0,0,5.78-2.04A7.347,7.347,0,0,0,175.2-14a7.347,7.347,0,0,0-2.18-5.64,8.118,8.118,0,0,0-5.78-2.04h-5V-6.32ZM197.2.56a25.886,25.886,0,0,1-6.6-.84,16.233,16.233,0,0,1-5.2-2.24L188-8.36a16.824,16.824,0,0,0,4.36,2,16.6,16.6,0,0,0,4.88.76q4.56,0,4.56-2.28a1.888,1.888,0,0,0-1.3-1.78,23.907,23.907,0,0,0-4.18-1.22,39.9,39.9,0,0,1-5.28-1.46,8.887,8.887,0,0,1-3.64-2.5,6.755,6.755,0,0,1-1.52-4.64,8.033,8.033,0,0,1,1.4-4.62,9.368,9.368,0,0,1,4.18-3.26,17.2,17.2,0,0,1,6.82-1.2,24.058,24.058,0,0,1,5.44.62,16.659,16.659,0,0,1,4.72,1.82L206-20.24a16.3,16.3,0,0,0-7.76-2.16,6.506,6.506,0,0,0-3.44.7,2.1,2.1,0,0,0-1.08,1.82A1.8,1.8,0,0,0,195-18.2a23.144,23.144,0,0,0,4.12,1.16,38.6,38.6,0,0,1,5.3,1.46,9.152,9.152,0,0,1,3.64,2.48,6.623,6.623,0,0,1,1.54,4.62,7.876,7.876,0,0,1-1.4,4.56A9.543,9.543,0,0,1,204-.66,16.988,16.988,0,0,1,197.2.56Z" transform="translate(337 212)" fill="#272727"/>
  </g>
</svg>
